HIERARCHY
ROOT joint_Root
{
	OFFSET 0.0 0.0 0.0
	CHANNELS 6 Xposition Yposition Zposition Zrotation Xrotation Yrotation 
	JOINT Hips
	{
		OFFSET 4.5925 91.4895 -427.239
		CHANNELS 6 Xposition Yposition Zposition Zrotation Xrotation Yrotation 
		JOINT Spine
		{
			OFFSET 15.7357 0.0 0.0
			CHANNELS 6 Xposition Yposition Zposition Zrotation Xrotation Yrotation 
			JOINT Chest
			{
				OFFSET 8.98455 -0.406207 0.0
				CHANNELS 6 Xposition Yposition Zposition Zrotation Xrotation Yrotation 
				JOINT Neck
				{
					OFFSET 16.3773 0.0 0.0
					CHANNELS 6 Xposition Yposition Zposition Zrotation Xrotation Yrotation 
					JOINT Head
					{
						OFFSET 6.45672 0.0 0.0
						CHANNELS 6 Xposition Yposition Zposition Zrotation Xrotation Yrotation 
						End Site
						{
							OFFSET 0.0 0.0 0.0
						}
					}
				}
				JOINT Shoulder_L
				{
					OFFSET 12.9942 -0.242716 4.98039
					CHANNELS 6 Xposition Yposition Zposition Zrotation Xrotation Yrotation 
					JOINT UpperArm_L
					{
						OFFSET 5.34809 0.0 0.0
						CHANNELS 6 Xposition Yposition Zposition Zrotation Xrotation Yrotation 
						JOINT LowerArm_L
						{
							OFFSET 24.3286 1.87007e-05 0.0
							CHANNELS 6 Xposition Yposition Zposition Zrotation Xrotation Yrotation 
							JOINT Hand_L
							{
								OFFSET 22.2916 0.0 0.0
								CHANNELS 6 Xposition Yposition Zposition Zrotation Xrotation Yrotation 
								End Site
								{
									OFFSET 0.0 0.0 0.0
								}
							}
						}
					}
				}
				JOINT Shoulder_R
				{
					OFFSET 12.9945 -0.242716 -4.98039
					CHANNELS 6 Xposition Yposition Zposition Zrotation Xrotation Yrotation 
					JOINT UpperArm_R
					{
						OFFSET -5.34813 0.0 0.0
						CHANNELS 6 Xposition Yposition Zposition Zrotation Xrotation Yrotation 
						JOINT LowerArm_R
						{
							OFFSET -24.3289 0.000322201 0.0
							CHANNELS 6 Xposition Yposition Zposition Zrotation Xrotation Yrotation 
							JOINT Hand_R
							{
								OFFSET -22.2915 -0.000108084 0.0
								CHANNELS 6 Xposition Yposition Zposition Zrotation Xrotation Yrotation 
								End Site
								{
									OFFSET 0.0 0.0 0.0
								}
							}
						}
					}
				}
			}
		}
		JOINT UpperLeg_L
		{
			OFFSET -2.19248 -6.46944 0.0
			CHANNELS 6 Xposition Yposition Zposition Zrotation Xrotation Yrotation 
			JOINT LowerLeg_L
			{
				OFFSET 39.0811 0.0 -1.23785e-05
				CHANNELS 6 Xposition Yposition Zposition Zrotation Xrotation Yrotation 
				JOINT Foot_L
				{
					OFFSET 40.9854 0.0 -1.26872e-05
					CHANNELS 6 Xposition Yposition Zposition Zrotation Xrotation Yrotation 
					JOINT Toes_L
					{
						OFFSET 11.7543 0.0 0.0
						CHANNELS 6 Xposition Yposition Zposition Zrotation Xrotation Yrotation 
						End Site
						{
							OFFSET 0.0 0.0 0.0
						}
					}
				}
			}
		}
		JOINT UpperLeg_R
		{
			OFFSET -2.19251 6.46944 0.0
			CHANNELS 6 Xposition Yposition Zposition Zrotation Xrotation Yrotation 
			JOINT LowerLeg_R
			{
				OFFSET -39.0811 -0.00228153 -0.0401928
				CHANNELS 6 Xposition Yposition Zposition Zrotation Xrotation Yrotation 
				JOINT Foot_R
				{
					OFFSET -40.9854 0.0 0.0
					CHANNELS 6 Xposition Yposition Zposition Zrotation Xrotation Yrotation 
					JOINT Toes_R
					{
						OFFSET -11.7543 0.0 0.0
						CHANNELS 6 Xposition Yposition Zposition Zrotation Xrotation Yrotation 
						End Site
						{
							OFFSET 0.0 0.0 0.0
						}
					}
				}
			}
		}
	}
}
MOTION
Frames:	6
Frame Time:	0.0333333
0.000000 0.000000 0.000000 0.000000 0.000000 -0.000000 133.510000 89.890300 -83.727900 87.715500 1.169690 2.403740 15.735700 0.000005 -0.000001 75.978500 84.371800 -75.800000 8.984550 -0.406207 -0.000000 3.162290 -2.731500 0.432076 16.377300 -0.000001 -0.000001 -1.745200 -2.959480 0.667543 6.456720 -0.000001 -0.000000 -11.885800 -1.573620 1.584880 12.994200 -0.242716 4.980390 -90.655000 2.412780 -74.810800 5.348090 -0.000007 -0.000001 -58.466900 40.228800 -29.477000 24.328600 0.000019 0.000005 10.770100 15.093300 -36.150300 22.291600 -0.000001 0.000005 15.485600 5.268220 0.945916 12.994500 -0.242716 -4.980390 88.528500 8.736610 -80.401100 -5.348130 -0.000001 -0.000004 -61.661200 31.785500 -5.802830 -24.328900 0.000322 -0.000009 4.959230 12.430400 -21.962900 -22.291500 -0.000108 -0.000004 8.122410 5.327670 -0.715482 -2.192480 -6.469440 -0.000000 -177.601000 -8.783630 -3.322650 39.081100 -0.000007 -0.000012 0.016370 -0.025024 33.189600 40.985400 -0.000006 -0.000013 5.858120 3.071300 -77.183400 11.754300 -0.000000 0.000003 -0.182120 -0.195377 -14.840300 -2.192510 6.469440 -0.000001 179.037000 9.891130 158.524000 -39.081100 -0.002282 -0.040193 0.104515 -0.041022 67.969900 -40.985400 0.000008 0.000006 3.871520 -4.798790 -58.616800 -11.754300 -0.000006 -0.000006 -0.020556 -0.170350 -23.534000
0.000000 0.000000 0.000000 0.000000 0.000000 -0.000000 133.511000 90.396500 -80.925000 87.459300 2.620190 1.285200 15.735700 0.000005 -0.000001 70.316500 84.647700 -69.794900 8.984550 -0.406207 -0.000000 2.334260 -3.627580 1.116440 16.377300 -0.000001 -0.000001 -2.055850 -3.157000 0.618077 6.456720 -0.000001 -0.000000 -12.147900 -1.481980 1.921930 12.994200 -0.242716 4.980390 -90.356500 1.380170 -75.518700 5.348090 -0.000007 -0.000001 -55.344800 40.272400 -34.980200 24.328600 0.000019 0.000005 11.632300 13.675000 -41.047400 22.291600 -0.000001 0.000005 14.703200 5.274890 0.765773 12.994500 -0.242716 -4.980390 88.460500 8.638150 -79.854700 -5.348130 -0.000001 -0.000004 -65.242400 30.636300 -1.174960 -24.328900 0.000322 -0.000009 3.734600 12.199800 -17.165900 -22.291500 -0.000108 -0.000004 7.749820 5.317650 -0.428236 -2.192480 -6.469440 -0.000000 -177.123000 -7.812640 -1.273570 39.081100 -0.000007 -0.000012 0.010221 -0.017607 30.134900 40.985400 -0.000006 -0.000013 5.734900 3.660630 -75.617300 11.754300 -0.000000 0.000003 0.000856 0.015929 -15.930800 -2.192510 6.469440 -0.000001 -179.074000 10.561400 154.792000 -39.081100 -0.002282 -0.040193 0.070967 -0.037875 60.800700 -40.985400 0.000008 0.000006 3.524440 -4.685050 -61.511300 -11.754300 -0.000006 -0.000006 -0.020791 -0.171631 -23.586800
0.000000 0.000000 0.000000 0.000000 0.000000 -0.000000 133.478000 90.446200 -78.123800 87.547400 3.714360 0.319214 15.735700 0.000005 -0.000001 65.348100 84.774500 -64.598600 8.984550 -0.406207 -0.000000 1.766970 -4.395820 1.566050 16.377300 -0.000001 -0.000001 -2.601840 -3.292240 0.708071 6.456720 -0.000001 -0.000000 -12.653000 -1.360670 2.347790 12.994200 -0.242716 4.980390 -90.126400 0.508863 -76.059100 5.348090 -0.000007 -0.000001 -52.802500 39.057500 -39.453900 24.328600 0.000019 0.000005 12.949000 12.866500 -45.916200 22.291600 -0.000001 0.000005 14.228300 5.275650 0.744835 12.994500 -0.242716 -4.980390 88.397300 8.624790 -79.431600 -5.348130 -0.000001 -0.000004 -67.754000 28.918600 2.663500 -24.328900 0.000322 -0.000009 2.701800 11.557300 -13.259500 -22.291500 -0.000108 -0.000004 7.270470 5.308570 -0.168427 -2.192480 -6.469440 -0.000000 -176.947000 -6.741770 0.332989 39.081100 -0.000007 -0.000012 0.005625 -0.010383 28.445000 40.985400 -0.000006 -0.000013 5.347300 3.976990 -74.987500 11.754300 -0.000000 0.000003 -0.000634 -0.010071 -16.986600 -2.192510 6.469440 -0.000001 -177.997000 10.578900 151.989000 -39.081100 -0.002282 -0.040193 0.045648 -0.032979 52.129700 -40.985400 0.000008 0.000006 2.069940 -2.117470 -62.363500 -11.754300 -0.000006 -0.000006 -0.021375 -0.174789 -23.717000
0.000000 0.000000 0.000000 0.000000 0.000000 -0.000000 133.342000 90.078300 -75.124900 87.835200 4.586810 -0.248408 15.735700 0.000005 -0.000001 61.259000 84.711700 -60.373900 8.984550 -0.406207 -0.000000 1.554550 -5.131070 1.839280 16.377300 -0.000001 -0.000001 -3.078290 -3.408490 0.958448 6.456720 -0.000001 -0.000000 -13.370100 -1.180500 2.847030 12.994200 -0.242716 4.980390 -89.959000 -0.168464 -76.331100 5.348090 -0.000007 -0.000001 -51.253100 36.966200 -42.428400 24.328600 0.000019 0.000005 14.474100 12.191300 -50.712900 22.291600 -0.000001 0.000005 14.556600 5.279490 0.640467 12.994500 -0.242716 -4.980390 88.347800 8.592350 -79.072600 -5.348130 -0.000001 -0.000004 -69.435600 26.812900 5.716920 -24.328900 0.000322 -0.000009 2.448590 13.219900 -10.597400 -22.291500 -0.000108 -0.000004 6.963940 5.282730 0.551624 -2.192480 -6.469440 -0.000000 -176.683000 -6.173270 1.922920 39.081100 -0.000007 -0.000012 0.000214 -0.000400 28.063900 40.985400 -0.000006 -0.000013 4.878620 4.630350 -75.225700 11.754300 -0.000000 0.000003 -0.003061 -0.041294 -18.256200 -2.192510 6.469440 -0.000001 -177.506000 10.115100 149.982000 -39.081100 -0.002282 -0.040193 0.018059 -0.015289 44.053200 -40.985400 0.000008 0.000006 -1.019300 1.676910 -62.270600 -11.754300 -0.000006 -0.000006 -0.022336 -0.179900 -23.927800
0.000000 0.000000 0.000000 0.000000 0.000000 -0.000000 133.158000 89.326600 -71.663000 88.398100 5.129880 -0.072240 15.735700 0.000005 -0.000001 59.030200 84.459700 -58.173500 8.984550 -0.406207 -0.000000 1.787580 -5.743240 1.802500 16.377300 -0.000001 -0.000001 -3.200070 -3.439120 1.364960 6.456720 -0.000001 -0.000000 -14.192400 -1.098420 3.477990 12.994200 -0.242716 4.980390 -89.935100 -0.263572 -76.169400 5.348090 -0.000007 -0.000001 -50.246000 34.523000 -43.997600 24.328600 0.000019 0.000005 15.556700 11.083500 -55.373400 22.291600 -0.000001 0.000005 15.192500 5.276820 0.711949 12.994500 -0.242716 -4.980390 88.274100 8.752270 -78.798900 -5.348130 -0.000001 -0.000004 -70.408700 24.875200 8.099970 -24.328900 0.000322 -0.000009 2.134950 14.544500 -8.448520 -22.291500 -0.000108 -0.000004 7.456720 5.255640 1.280900 -2.192480 -6.469440 -0.000000 -176.405000 -6.083370 4.060000 39.081100 -0.000007 -0.000012 -0.005058 0.009150 28.938000 40.985400 -0.000006 -0.000013 4.529890 5.492600 -75.914900 11.754300 -0.000000 0.000003 -0.008499 -0.092069 -20.326400 -2.192510 6.469440 -0.000001 -177.028000 9.997460 148.521000 -39.081100 -0.002282 -0.040193 -0.005340 0.010466 39.477400 -40.985400 0.000008 0.000006 -3.137940 3.112830 -62.613700 -11.754300 -0.000006 -0.000006 -0.021923 -0.177717 -23.837700
0.000000 0.000000 0.000000 0.000000 0.000000 -0.000000 132.846000 88.307900 -67.578500 88.637000 5.641210 0.623625 15.735700 0.000005 -0.000001 57.555800 84.149800 -56.671900 8.984550 -0.406207 -0.000000 2.170180 -6.315780 1.887260 16.377300 -0.000001 -0.000001 -2.933000 -3.462080 1.742120 6.456720 -0.000001 -0.000000 -14.549100 -1.082920 4.009410 12.994200 -0.242716 4.980390 -90.171400 0.677863 -75.816200 5.348090 -0.000007 -0.000001 -49.310900 32.043200 -44.271600 24.328600 0.000019 0.000005 15.749100 9.646060 -59.283600 22.291600 -0.000001 0.000005 15.948500 5.276870 0.712464 12.994500 -0.242716 -4.980390 88.098600 9.391350 -78.500900 -5.348130 -0.000001 -0.000004 -70.559200 23.191500 9.962620 -24.328900 0.000322 -0.000009 1.611140 14.020600 -6.625930 -22.291500 -0.000108 -0.000004 8.463770 5.246670 1.520600 -2.192480 -6.469440 -0.000000 -175.455000 -5.937510 6.416260 39.081100 -0.000007 -0.000012 -0.011845 0.019606 31.139500 40.985400 -0.000006 -0.000013 3.960490 6.663180 -76.521900 11.754300 -0.000000 0.000003 -0.021721 -0.176656 -23.797700 -2.192510 6.469440 -0.000001 -175.410000 12.081500 147.586000 -39.081100 -0.002282 -0.040193 -0.025081 0.035546 38.587500 -40.985400 0.000008 0.000006 -4.126800 5.140470 -62.919100 -11.754300 -0.000006 -0.000006 -0.021947 -0.177843 -23.843000
